<svg xmlns="http://www.w3.org/2000/svg" version="1.1" xmlns:xlink="http://www.w3.org/1999/xlink" xmlns:svgjs="http://svgjs.dev/svgjs" viewBox="0 0 800 800"><defs><filter id="uuunion-blur" x="-100%" y="-100%" width="400%" height="400%" color-interpolation-filters="sRGB">
        <feGaussianBlur in="SourceGraphic" stdDeviation="22 22" result="blur"></feGaussianBlur>
        <feDropShadow stdDeviation="12.307692307692308" in="blur" dx="10" dy="10" flood-color="hsl(252, 100%, 5%)" flood-opacity="0.25" x="0%" y="0%" width="100%" height="100%"></feDropShadow>
      </filter><filter id="uuunion-blur2" x="-100%" y="-100%" width="400%" height="400%" color-interpolation-filters="sRGB">
        <feGaussianBlur in="SourceGraphic" stdDeviation="22 22" result="blur"></feGaussianBlur>
        <feDropShadow stdDeviation="12.307692307692308" in="blur" dx="-10" dy="-10" flood-color="hsl(252, 100%, 5%)" flood-opacity="0.25" x="0%" y="0%" width="100%" height="100%"></feDropShadow>
      </filter><linearGradient gradientTransform="rotate(121, 0.5, 0.5)" x1="50%" y1="0%" x2="50%" y2="100%" id="uuunion-grad"><stop stop-color="hsl(3, 100%, 4%)" offset="10%"></stop><stop stop-color="hsl(252, 100%, 5%)" offset="90%"></stop></linearGradient><linearGradient gradientTransform="rotate(66, 0.5, 0.5)" x1="50%" y1="0%" x2="50%" y2="100%" id="uuunion-grad2"><stop stop-color="hsl(3, 100%, 4%)" offset="25%"></stop><stop stop-color="hsl(252, 100%, 5%)" offset="100%"></stop></linearGradient><linearGradient gradientTransform="rotate(333, 0.5, 0.5)" x1="50%" y1="0%" x2="50%" y2="100%" id="uuunion-grad3"><stop stop-color="hsl(3, 100%, 4%)" offset="0%"></stop><stop stop-color="hsl(252, 100%, 5%)" offset="75%"></stop></linearGradient></defs><path d="M-79.34 -88.63Q-64.57 -87.98 -49.81 -84.31 -35.04 -79.01 -20.28 -74.08 -5.51 -71.39 9.24 -71.95 24 -75.55 38.77 -80.84 53.53 -85.8 68.3 -88.57 83.06 -88.1 97.83 -84.56 112.59 -79.3 127.35 -74.3 142.12 -71.45 156.88 -71.83 171.65 -75.3 186.41 -80.55 201.18 -85.58 215.94 -88.5 230.7 -88.21 245.47 -84.81 260.23 -79.59 275 -74.52 289.76 -71.52 304.53 -71.73 319.29 -75.06 334.06 -80.25 348.82 -85.35 363.58 -88.42 378.35 -88.31 393.11 -85.05 407.88 -79.88 422.64 -74.75 437.41 -71.61 452.17 -71.63 466.93 -74.82 481.7 -79.96 496.46 -85.12 511.23 -88.34 525.99 -88.4 540.76 -85.29 555.52 -80.17 570.28 -74.99 585.05 -71.7 599.81 -71.55 614.58 -74.59 629.34 -79.67 644.11 -84.88 658.87 -88.24 673.64 -88.48 688.4 -85.52 703.16 -80.47 717.93 -75.23 732.69 -71.8 747.46 -71.47 762.22 -74.36 776.99 -79.38 791.75 -84.63 806.51 -88.13 821.28 -88.55 836.04 -85.74 850.81 -80.76 865.57 -75.48 858.4 -60.37 855.9 -45.25 858.59 -30.14 865.89 -15.02 876.24 0.08 887.4 15.2 896.97 30.31 902.87 45.43 903.83 60.55 899.66 75.66 891.24 90.78 880.39 105.89 869.47 121.01 860.81 136.12 856.29 151.24 856.88 166.35 862.47 181.47 871.83 196.58 882.95 211.7 893.44 226.81 901.03 241.93 904.07 257.04 901.93 272.16 895.05 287.28 884.93 302.39 873.74 317.51 863.9 332.62 857.53 347.74 856.01 362.85 859.67 377.97 867.71 393.08 878.4 408.2 889.43 423.31 898.43 438.43 903.46 453.54 903.42 468.66 898.33 483.78 889.28 498.89 878.23 514.01 867.56 529.12 859.58 544.24 856 559.35 857.59 574.47 864.02 589.58 873.9 604.7 885.09 619.81 895.18 634.93 902 650.04 904.07 665.16 900.94 680.28 893.3 695.39 882.79 710.51 871.67 725.62 862.35 740.74 856.84 755.85 856.32 770.97 860.91 786.08 869.62 801.2 880.56 816.31 891.39 831.43 899.75 846.54 903.86 861.66 902.81 876.77 896.85 891.89 881.57 877.99 866.3 864.84 851.02 857.43 835.75 858.54 820.47 867.77 805.19 881.62 789.92 894.85 774.64 902.47 759.37 901.59 744.09 892.54 728.82 878.76 713.54 865.43 698.27 857.62 682.99 858.26 667.72 867.12 652.44 880.85 637.17 894.25 621.89 902.27 606.62 901.86 591.34 893.18 576.06 879.52 560.79 866.04 545.51 857.83 530.24 858.01 514.96 866.49 499.69 880.08 484.41 893.64 469.14 902.04 453.86 902.1 438.59 893.81 423.31 880.29 408.04 866.66 392.76 858.07 377.49 857.77 362.21 865.87 346.93 879.31 331.66 893.01 316.38 901.79 301.11 902.33 285.83 894.42 270.56 881.06 255.28 867.3 240.01 858.34 224.73 857.56 209.46 865.27 194.18 878.54 178.91 892.36 163.63 901.51 148.36 902.52 133.08 895.02 117.81 881.83 102.53 867.95 87.25 858.63 71.98 857.38 56.7 864.68 41.43 877.77 26.15 891.71 10.88 901.21 -4.39 902.69 -19.66 895.59 -34.94 882.6 -50.21 868.62 -65.49 858.94 -80.76 857.22 -81.04 842.44 -81.08 827.66 -80.9 812.88 -80.51 798.1 -80.02 783.32 -79.52 768.55 -79.12 753.77 -78.91 738.99 -78.94 724.21 -79.19 709.43 -79.62 694.65 -80.12 679.87 -80.6 665.09 -80.95 650.31 -81.09 635.53 -81 620.75 -80.69 605.98 -80.23 591.2 -79.72 576.42 -79.27 561.64 -78.97 546.86 -78.9 532.08 -79.06 517.3 -79.43 502.52 -79.91 487.74 -80.42 472.96 -80.83 458.18 -81.06 443.4 -81.07 428.63 -80.84 413.85 -80.43 399.07 -79.92 384.29 -79.43 369.51 -79.07 354.73 -78.9 339.95 -78.97 325.17 -79.26 310.39 -79.71 295.61 -80.22 280.83 -80.68 266.06 -81 251.28 -81.09 236.5 -80.95 221.72 -80.61 206.94 -80.13 192.16 -79.62 177.38 -79.19 162.6 -78.94 147.82 -78.91 133.04 -79.12 118.26 -79.51 103.48 -80.01 88.71 -80.51 73.93 -80.89 59.15 -81.08 44.37 -81.04 29.59 -80.77 14.81 -80.33 0.03 -79.82 -14.74 -79.35 -29.52 -79.02 -44.3 -78.9 -59.08 -79.01 -73.85 -79.34 -88.63" fill="url(#uuunion-grad)"></path><path d="M-79.34 -88.63Q-79.01 -73.85 -78.9 -59.08 -79.02 -44.3 -79.35 -29.52 -79.82 -14.74 -80.33 0.03 -80.77 14.81 -81.04 29.59 -81.08 44.37 -80.89 59.15 -80.51 73.93 -80.01 88.71 -79.51 103.48 -79.12 118.26 -78.91 133.04 -78.94 147.82 -79.19 162.6 -79.62 177.38 -80.13 192.16 -80.61 206.94 -80.95 221.72 -81.09 236.5 -81 251.28 -80.68 266.06 -80.22 280.83 -79.71 295.61 -79.26 310.39 -78.97 325.17 -78.9 339.95 -79.07 354.73 -79.43 369.51 -79.92 384.29 -69.94 384.4 -59.96 387.18 -49.97 392.15 -39.99 398.46 -30.01 405.04 -20.03 410.75 -1.31 415.62 1.92 415.94 14.1 406.85 26.17 394.36 38.16 380.13 50.09 366.3 62.01 354.84 73.95 347.08 85.95 343.39 98.07 343.04 110.33 344.45 122.78 345.57 135.42 344.48 148.28 339.86 161.37 331.32 174.66 319.51 188.15 305.93 201.8 292.52 215.56 281.17 229.38 273.18 243.21 268.97 256.97 267.95 270.61 268.71 284.05 269.38 297.25 268.16 310.14 263.74 322.68 255.7 334.86 244.54 346.65 231.61 358.06 218.67 369.12 207.48 379.85 199.32 390.33 194.63 400.61 192.97 410.77 193.08 420.92 193.28 431.14 191.86 441.53 187.59 452.19 179.99 463.2 169.47 474.65 157.18 486.6 144.73 499.09 133.76 512.14 125.48 525.75 120.37 539.92 118.1 554.58 117.57 569.67 117.26 585.1 115.6 600.77 111.42 616.55 104.22 632.33 94.29 647.95 82.64 663.3 70.71 678.25 60 692.68 51.66 706.5 46.19 719.62 43.34 732.01 42.17 743.64 41.32 754.52 39.38 764.69 35.24 774.21 28.37 783.18 19 791.73 7.98 800 -3.39 788.55 -20.8 780.45 -38.21 778.05 -55.62 782.05 -73.04 791.28 -90.45 803.06 -107.86 809.71 -131.56 790.2 -133.83 774.93 -132.11 759.65 -133.33 744.38 -137.04 729.1 -141.86 713.83 -145.98 698.55 -147.86 683.28 -146.81 668 -143.21 652.72 -138.41 637.45 -134.2 622.17 -132.16 606.9 -133.04 591.62 -136.52 576.35 -141.3 561.07 -145.59 545.8 -147.79 530.52 -147.08 515.25 -143.72 499.97 -138.97 484.69 -134.6 469.42 -132.25 454.14 -132.79 438.87 -136.02 423.59 -140.74 408.32 -145.17 393.04 -147.68 377.77 -147.31 362.49 -144.21 347.21 -139.54 331.94 -135.03 316.66 -132.38 301.39 -132.57 286.11 -135.54 270.84 -140.17 255.56 -144.73 240.29 -147.53 225.01 -147.51 209.74 -144.68 194.46 -140.11 179.18 -135.49 163.91 -132.56 148.63 -132.4 133.36 -135.08 118.08 -139.6 102.81 -144.26 87.53 -147.33 72.26 -147.67 56.98 -145.13 41.71 -140.68 26.43 -135.97 11.15 -132.77 -4.11 -132.26 -19.39 -134.64 -34.66 -139.03 -49.94 -143.77 -65.21 -147.1 -80.49 -147.78 -95.76 -145.55 -111.04 -141.25 -126.32 -136.47 -135.88 -121.04 -117.6 -108.64 -107.86 -104.36 -98.22 -99.89 -88.71 -94.78 -79.34 -88.63" fill="url(#uuunion-grad2)" filter="url(#uuunion-blur)"></path><path d="M798.54 394.56Q808.52 388.93 818.5 385.2 828.48 384 838.47 385.54 848.45 389.55 858.43 395.34 868.41 401.94 878.4 408.2 889.43 423.31 898.43 438.43 903.46 453.54 903.42 468.66 898.33 483.78 889.28 498.89 878.23 514.01 867.56 529.12 859.58 544.24 856 559.35 857.59 574.47 864.02 589.58 873.9 604.7 885.09 619.81 895.18 634.93 902 650.04 904.07 665.16 900.94 680.28 893.3 695.39 882.79 710.51 871.67 725.62 862.35 740.74 856.84 755.85 856.32 770.97 860.91 786.08 869.62 801.2 880.56 816.31 891.39 831.43 899.75 846.54 903.86 861.66 902.81 876.77 896.85 891.89 882.83 879.18 868.81 866.73 854.79 858.52 840.77 857.19 826.76 863.16 812.74 874.51 798.72 887.62 784.7 898.29 770.68 903.1 756.66 900.52 742.65 891.37 728.63 878.57 714.61 866.24 700.59 858.3 686.57 857.31 672.55 863.58 658.54 875.1 644.52 888.19 630.5 898.66 616.48 903.15 602.46 900.23 588.44 890.84 574.43 877.97 560.41 865.75 546.39 858.09 532.37 857.44 518.35 864.01 504.33 875.7 490.32 888.75 476.3 899.01 462.28 903.18 448.26 899.93 434.24 890.3 420.22 877.37 406.21 865.28 392.19 857.9 378.17 857.59 364.15 864.46 350.13 876.29 336.11 889.31 322.1 899.35 308.08 903.19 294.06 899.61 280.04 889.75 266.02 876.77 252.01 864.82 237.99 857.73 223.97 857.76 209.95 864.91 195.93 876.89 181.91 889.86 167.9 899.68 153.88 903.19 139.86 899.28 125.84 889.2 111.82 876.17 97.8 864.37 83.79 857.56 69.77 857.94 55.75 865.37 41.73 877.49 27.71 890.41 6.78 896.51 -0.04 882.88 -0.03 872.73 -0.12 862.58 -0.29 852.43 -0.53 842.28 -0.72 827.06 -0.13 822 12.07 812.75 24.17 798.51 36.19 781.43 48.16 764.39 60.13 750.25 72.13 741.06 84.21 737.56 96.4 738.97 108.74 743.22 121.27 747.52 134 749.08 146.95 745.86 160.11 737.1 173.48 723.52 187.03 707.1 200.72 690.54 214.51 676.57 228.35 667.21 242.17 663.23 255.91 663.98 269.5 667.58 282.89 671.4 296.01 672.76 308.82 669.7 321.28 661.41 333.37 648.47 345.08 632.7 356.41 616.63 367.41 602.87 378.11 593.37 388.56 588.95 398.85 589.08 409.06 592.02 419.27 595.33 429.59 596.48 440.11 593.53 450.93 585.66 462.13 573.34 473.77 558.22 485.93 542.67 498.63 529.15 511.9 519.55 525.72 514.73 540.07 514.24 554.9 516.54 570.12 519.32 585.65 520.21 601.38 517.34 617.19 509.86 632.93 498.14 648.49 483.67 663.73 468.65 678.53 455.4 692.79 445.75 706.4 440.55 719.32 439.48 731.48 441.13 742.9 443.38 753.57 443.98 763.56 441.15 772.93 434.01 781.8 422.86 794.41 401.8 798.54 394.56" fill="url(#uuunion-grad3)" filter="url(#uuunion-blur2)"></path></svg>